#!OML:ASF E:\acrobat2\Project_11_07_03\Capture day 1\Session 1\Acrobat.ASF
:FULLY-SPECIFIED
:DEGREES
1168
root 5.75633 4.88692 22.2997 5.4634 4.58176 2.31235
lowerback 27.866 3.91077 -1.86075
upperback 24.4574 4.71521 2.36992
thorax 11.9078 1.97928 2.82266
lowerneck 19.9622 -7.45893 6.69754
upperneck 6.64878 -8.10078 -8.73835
head -1.73141 -3.45992 -3.1625
rclavicle 2.8625e-014 -2.18663e-014
rhumerus 37.2562 -8.33227 -88.7097
rradius 66.9397
rwrist 12.1504
rhand -6.3035 -39.0442
rfingers 7.12502
rthumb 19.5406 -68.0822
lclavicle 2.8625e-014 -2.18663e-014
lhumerus 62.5566 -25.9295 63.2149
lradius 50.4396
lwrist 18.7063
lhand -38.6414 -40.0673
lfingers 7.12502
lthumb -11.6579 -10.4116
rfemur -140.495 -38.1005 25.4899
rtibia 25.3963
rfoot -204.832 3.13047
rtoes -12.7092
lfemur -148.65 42.2916 -34.0532
ltibia 39.4485
lfoot -168.052 17.0917
ltoes 31.4415
1169
root 5.72074 4.90705 22.2993 5.76257 4.86811 2.46569
lowerback 27.9079 3.86089 -1.8848
upperback 24.673 4.66821 2.23925
thorax 12.1687 1.96465 2.71523
lowerneck 20.5063 -7.57868 6.75658
upperneck 6.51293 -8.21968 -9.43123
head -1.9003 -3.47169 -3.35918
rclavicle 3.18055e-015 -1.98785e-015
rhumerus 35.6058 -8.04055 -88.4569
rradius 67.093
rwrist 19.3889
rhand -3.84467 -40.2429
rfingers 7.12502
rthumb 21.9031 -69.0231
lclavicle 3.18055e-015 -1.98785e-015
lhumerus 62.1836 -26.6511 63.3273
lradius 47.069
lwrist 14.0615
lhand -40.5284 -40.4164
lfingers 7.12502
lthumb -13.4771 -10.8724
rfemur -140.297 -37.7738 25.2046
rtibia 25.2354
rfoot -205.349 3.49742
rtoes -12.5388
lfemur -148.317 42.0576 -33.7363
ltibia 39.7465
lfoot -168.002 17.1564
ltoes 31.5923
1170
root 5.68517 4.95254 22.2883 6.22873 5.25924 2.62727
lowerback 27.9587 3.74324 -1.8983
upperback 24.8113 4.54251 2.04391
thorax 12.3425 1.92185 2.53981
lowerneck 20.9105 -7.69947 6.72831
upperneck 6.46036 -8.36354 -10.0471
head -2.02007 -3.50195 -3.52109
rclavicle 9.54166e-015 -2.94201e-014
rhumerus 34.3397 -7.11092 -86.6797
rradius 67.516
rwrist 24.6276
rhand -2.00033 -41.2416
rfingers 7.12502
rthumb 23.6731 -69.8039
lclavicle 9.54166e-015 -2.94201e-014
lhumerus 61.789 -27.1837 63.2711
lradius 44.9203
lwrist 8.77075
lhand -43.2763 -39.6692
lfingers 7.12502
lthumb -16.1244 -10.32
rfemur -140.138 -37.5058 25.1018
rtibia 25.2503
rfoot -205.893 3.94518
rtoes -12.4917
lfemur -147.822 41.6002 -33.3802
ltibia 40.2011
lfoot -168.005 17.1649
ltoes 31.8851
1171
root 5.65054 5.02189 22.2683 6.85752 5.76029 2.80104
lowerback 28.0117 3.50184 -1.90777
upperback 24.8648 4.26805 1.74591
thorax 12.4268 1.81828 2.27012
lowerneck 21.2158 -7.71894 6.50738
upperneck 6.36975 -8.43116 -10.5351
head -2.11782 -3.506 -3.62225
rclavicle 4.13472e-014 -2.18663e-014
rhumerus 33.7096 -5.2952 -83.5815
rradius 67.6589
rwrist 26.0052
rhand -1.80873 -42.4753
rfingers 7.12502
rthumb 23.8568 -71.0137
lclavicle 4.13472e-014 -2.18663e-014
lhumerus 61.4217 -27.4314 62.9887
lradius 43.869
lwrist 4.28517
lhand -45.7734 -38.0332
lfingers 7.12502
lthumb -18.5277 -8.89554
rfemur -140.053 -37.3306 25.2085
rtibia 25.44
rfoot -206.452 4.46984
rtoes -12.5669
lfemur -147.204 40.9173 -33.0081
ltibia 40.7954
lfoot -168.079 17.1368
ltoes 32.2324
1172
root 5.61883 5.11369 22.2413 7.63688 6.38532 3.01192
lowerback 28.0509 3.09842 -1.89608
upperback 24.831 3.80144 1.32432
thorax 12.4255 1.63681 1.88248
lowerneck 21.4128 -7.61662 6.06202
upperneck 6.28988 -8.40053 -10.9179
head -2.17479 -3.47445 -3.66772
rclavicle -7.95139e-016 8.74653e-015
rhumerus 33.8204 -2.75133 -79.6186
rradius 67.3085
rwrist 23.2835
rhand -3.24307 -43.7574
rfingers 7.12502
rthumb 22.4807 -72.4689
lclavicle -7.95139e-016 8.74653e-015
lhumerus 61.1739 -27.395 62.4549
lradius 43.5361
lwrist 1.83009
lhand -47.3765 -37.2553
lfingers 7.12502
lthumb -20.0692 -8.27179
rfemur -140.048 -37.3205 25.5131
rtibia 25.8062
rfoot -207.012 5.02768
rtoes -12.6768
lfemur -146.503 39.9926 -32.656
ltibia 41.5056
lfoot -168.255 17.1036
ltoes 32.4838
1173
root 5.59059 5.22652 22.2091 8.53718 7.09244 3.25715
lowerback 28.0643 2.57176 -1.87508
upperback 24.7168 3.18631 0.823784
thorax 12.3393 1.39204 1.42579
lowerneck 21.5374 -7.38852 5.4464
upperneck 6.10739 -8.26354 -11.211
head -2.23263 -3.3998 -3.66878
rclavicle -1.59028e-014 8.34896e-015
rhumerus 34.5032 -0.0195387 -75.79
rradius 66.7651
rwrist 17.5179
rhand -5.30571 -45.1614
rfingers 7.12502
rthumb 20.4997 -74.0992
lclavicle -1.59028e-014 8.34896e-015
lhumerus 61.195 -27.1468 61.6879
lradius 43.3563
lwrist 2.07724
lhand -47.6018 -37.7136
lfingers 7.12502
lthumb -20.2857 -8.75292
rfemur -140.089 -37.4749 25.9819
rtibia 26.3441
rfoot -207.561 5.54794
rtoes -12.7472
lfemur -145.763 38.8969 -32.3533
ltibia 42.3144
lfoot -168.51 17.0578
ltoes 32.7167
1174
root 5.5655 5.35943 22.1726 9.51469 7.83448 3.51584
lowerback 28.0546 1.98464 -1.83493
upperback 24.5375 2.49898 0.302277
thorax 12.175 1.11646 0.94691
lowerneck 21.5848 -7.06973 4.75287
upperneck 5.78425 -8.04891 -11.4378
head -2.30991 -3.29187 -3.64377
rclavicle -5.56597e-015 5.36719e-015
rhumerus 35.4936 2.28562 -73.0922
rradius 66.0225
rwrist 10.8518
rhand -8.28183 -46.2467
rfingers 7.12502
rthumb 17.6376 -75.4667
lclavicle -5.56597e-015 5.36719e-015
lhumerus 61.6273 -26.7758 60.7018
lradius 42.7769
lwrist 4.88579
lhand -46.4585 -40.4337
lfingers 7.12502
lthumb -19.1866 -11.3601
rfemur -140.135 -37.7434 26.5931
rtibia 27.0399
rfoot -208.091 6.02652
rtoes -12.8682
lfemur -145.001 37.7118 -32.1065
ltibia 43.2148
lfoot -168.825 17.012
ltoes 32.8822
